<svg width="86" height="15" viewBox="0 0 86 15" fill="none" xmlns="http://www.w3.org/2000/svg">
<path d="M12.8242 6.75517L10.3578 8.90767L11.0966 12.1124C11.1357 12.2799 11.1245 12.4552 11.0645 12.6165C11.0045 12.7777 10.8983 12.9176 10.7592 13.0188C10.62 13.12 10.4542 13.178 10.2823 13.1854C10.1104 13.1928 9.94017 13.1494 9.79283 13.0606L6.99775 11.3653L4.20869 13.0606C4.06134 13.1494 3.89109 13.1928 3.71922 13.1854C3.54735 13.178 3.38148 13.12 3.24236 13.0188C3.10323 12.9176 2.99703 12.7777 2.93701 12.6165C2.877 12.4552 2.86584 12.2799 2.90494 12.1124L3.64267 8.91095L1.17572 6.75517C1.04524 6.64264 0.95089 6.49408 0.904501 6.32814C0.858111 6.1622 0.861748 5.98625 0.914955 5.82237C0.968162 5.65849 1.06857 5.51396 1.20359 5.40691C1.33861 5.29987 1.50222 5.23507 1.67392 5.22064L4.92564 4.939L6.19494 1.9115C6.26122 1.75264 6.37303 1.61694 6.51628 1.5215C6.65952 1.42605 6.82781 1.37512 6.99994 1.37512C7.17207 1.37512 7.34036 1.42605 7.4836 1.5215C7.62685 1.61694 7.73866 1.75264 7.80494 1.9115L9.07806 4.939L12.3287 5.22064C12.5004 5.23507 12.664 5.29987 12.799 5.40691C12.934 5.51396 13.0345 5.65849 13.0877 5.82237C13.1409 5.98625 13.1445 6.1622 13.0981 6.32814C13.0517 6.49408 12.9574 6.64264 12.8269 6.75517H12.8242Z" fill="#363842"/>
<path d="M30.8242 6.75517L28.3578 8.90767L29.0966 12.1124C29.1357 12.2799 29.1245 12.4552 29.0645 12.6165C29.0045 12.7777 28.8983 12.9176 28.7592 13.0188C28.62 13.12 28.4542 13.178 28.2823 13.1854C28.1104 13.1928 27.9402 13.1494 27.7928 13.0606L24.9978 11.3653L22.2087 13.0606C22.0613 13.1494 21.8911 13.1928 21.7192 13.1854C21.5473 13.178 21.3815 13.12 21.2424 13.0188C21.1032 12.9176 20.997 12.7777 20.937 12.6165C20.877 12.4552 20.8658 12.2799 20.9049 12.1124L21.6427 8.91095L19.1757 6.75517C19.0452 6.64264 18.9509 6.49408 18.9045 6.32814C18.8581 6.1622 18.8617 5.98625 18.915 5.82237C18.9682 5.65849 19.0686 5.51396 19.2036 5.40691C19.3386 5.29987 19.5022 5.23507 19.6739 5.22064L22.9256 4.939L24.1949 1.9115C24.2612 1.75264 24.373 1.61694 24.5163 1.5215C24.6595 1.42605 24.8278 1.37512 24.9999 1.37512C25.1721 1.37512 25.3404 1.42605 25.4836 1.5215C25.6269 1.61694 25.7387 1.75264 25.8049 1.9115L27.0781 4.939L30.3287 5.22064C30.5004 5.23507 30.664 5.29987 30.799 5.40691C30.934 5.51396 31.0345 5.65849 31.0877 5.82237C31.1409 5.98625 31.1445 6.1622 31.0981 6.32814C31.0517 6.49408 30.9574 6.64264 30.8269 6.75517H30.8242Z" fill="#363842"/>
<path d="M48.8242 6.75517L46.3578 8.90767L47.0966 12.1124C47.1357 12.2799 47.1245 12.4552 47.0645 12.6165C47.0045 12.7777 46.8983 12.9176 46.7592 13.0188C46.62 13.12 46.4542 13.178 46.2823 13.1854C46.1104 13.1928 45.9402 13.1494 45.7928 13.0606L42.9978 11.3653L40.2087 13.0606C40.0613 13.1494 39.8911 13.1928 39.7192 13.1854C39.5473 13.178 39.3815 13.12 39.2424 13.0188C39.1032 12.9176 38.997 12.7777 38.937 12.6165C38.877 12.4552 38.8658 12.2799 38.9049 12.1124L39.6427 8.91095L37.1757 6.75517C37.0452 6.64264 36.9509 6.49408 36.9045 6.32814C36.8581 6.1622 36.8617 5.98625 36.915 5.82237C36.9682 5.65849 37.0686 5.51396 37.2036 5.40691C37.3386 5.29987 37.5022 5.23507 37.6739 5.22064L40.9256 4.939L42.1949 1.9115C42.2612 1.75264 42.373 1.61694 42.5163 1.5215C42.6595 1.42605 42.8278 1.37512 42.9999 1.37512C43.1721 1.37512 43.3404 1.42605 43.4836 1.5215C43.6269 1.61694 43.7387 1.75264 43.8049 1.9115L45.0781 4.939L48.3287 5.22064C48.5004 5.23507 48.664 5.29987 48.799 5.40691C48.934 5.51396 49.0345 5.65849 49.0877 5.82237C49.1409 5.98625 49.1445 6.1622 49.0981 6.32814C49.0517 6.49408 48.9574 6.64264 48.8269 6.75517H48.8242Z" fill="#363842"/>
<path d="M66.8242 6.75517L64.3578 8.90767L65.0966 12.1124C65.1357 12.2799 65.1245 12.4552 65.0645 12.6165C65.0045 12.7777 64.8983 12.9176 64.7592 13.0188C64.62 13.12 64.4542 13.178 64.2823 13.1854C64.1104 13.1928 63.9402 13.1494 63.7928 13.0606L60.9978 11.3653L58.2087 13.0606C58.0613 13.1494 57.8911 13.1928 57.7192 13.1854C57.5473 13.178 57.3815 13.12 57.2424 13.0188C57.1032 12.9176 56.997 12.7777 56.937 12.6165C56.877 12.4552 56.8658 12.2799 56.9049 12.1124L57.6427 8.91095L55.1757 6.75517C55.0452 6.64264 54.9509 6.49408 54.9045 6.32814C54.8581 6.1622 54.8617 5.98625 54.915 5.82237C54.9682 5.65849 55.0686 5.51396 55.2036 5.40691C55.3386 5.29987 55.5022 5.23507 55.6739 5.22064L58.9256 4.939L60.1949 1.9115C60.2612 1.75264 60.373 1.61694 60.5163 1.5215C60.6595 1.42605 60.8278 1.37512 60.9999 1.37512C61.1721 1.37512 61.3404 1.42605 61.4836 1.5215C61.6269 1.61694 61.7387 1.75264 61.8049 1.9115L63.0781 4.939L66.3287 5.22064C66.5004 5.23507 66.664 5.29987 66.799 5.40691C66.934 5.51396 67.0345 5.65849 67.0877 5.82237C67.1409 5.98625 67.1445 6.1622 67.0981 6.32814C67.0517 6.49408 66.9574 6.64264 66.8269 6.75517H66.8242Z" fill="#BDBEC2"/>
<path d="M84.8242 6.75517L82.3578 8.90767L83.0966 12.1124C83.1357 12.2799 83.1245 12.4552 83.0645 12.6165C83.0045 12.7777 82.8983 12.9176 82.7592 13.0188C82.62 13.12 82.4542 13.178 82.2823 13.1854C82.1104 13.1928 81.9402 13.1494 81.7928 13.0606L78.9978 11.3653L76.2087 13.0606C76.0613 13.1494 75.8911 13.1928 75.7192 13.1854C75.5473 13.178 75.3815 13.12 75.2424 13.0188C75.1032 12.9176 74.997 12.7777 74.937 12.6165C74.877 12.4552 74.8658 12.2799 74.9049 12.1124L75.6427 8.91095L73.1757 6.75517C73.0452 6.64264 72.9509 6.49408 72.9045 6.32814C72.8581 6.1622 72.8617 5.98625 72.915 5.82237C72.9682 5.65849 73.0686 5.51396 73.2036 5.40691C73.3386 5.29987 73.5022 5.23507 73.6739 5.22064L76.9256 4.939L78.1949 1.9115C78.2612 1.75264 78.373 1.61694 78.5163 1.5215C78.6595 1.42605 78.8278 1.37512 78.9999 1.37512C79.1721 1.37512 79.3404 1.42605 79.4836 1.5215C79.6269 1.61694 79.7387 1.75264 79.8049 1.9115L81.0781 4.939L84.3287 5.22064C84.5004 5.23507 84.664 5.29987 84.799 5.40691C84.934 5.51396 85.0345 5.65849 85.0877 5.82237C85.1409 5.98625 85.1445 6.1622 85.0981 6.32814C85.0517 6.49408 84.9574 6.64264 84.8269 6.75517H84.8242Z" fill="#BDBEC2"/>
</svg>
